<?xml version="1.0" encoding="UTF-8" standalone="no"?>
<svg
   version="1.1"
   width="305.17026"
   height="206.11526"
   style="clip-rule:evenodd;fill-rule:evenodd;image-rendering:optimizeQuality;shape-rendering:geometricPrecision;text-rendering:geometricPrecision"
   id="svg79"
   sodipodi:docname="Başlıksız.svg"
   inkscape:version="1.4.2 (f4327f4, 2025-05-13)"
   xmlns:inkscape="http://www.inkscape.org/namespaces/inkscape"
   xmlns:sodipodi="http://sodipodi.sourceforge.net/DTD/sodipodi-0.dtd"
   xmlns="http://www.w3.org/2000/svg"
   xmlns:svg="http://www.w3.org/2000/svg">
  <defs
     id="defs79" />
  <sodipodi:namedview
     id="namedview79"
     pagecolor="#ffffff"
     bordercolor="#000000"
     borderopacity="0.25"
     inkscape:showpageshadow="2"
     inkscape:pageopacity="0.0"
     inkscape:pagecheckerboard="0"
     inkscape:deskcolor="#d1d1d1"
     inkscape:zoom="2.0244205"
     inkscape:cx="225.9906"
     inkscape:cy="209.19567"
     inkscape:window-width="1920"
     inkscape:window-height="991"
     inkscape:window-x="-9"
     inkscape:window-y="-9"
     inkscape:window-maximized="1"
     inkscape:current-layer="svg79" />
  <g
     id="g2"
     transform="translate(-28.5,-26.384737)">
    <path
       style="opacity:1"
       fill="#ff712b"
       d="m 174.5,26.5 c 10.057,-0.3645 20.057,0.1355 30,1.5 1.205,6.4537 2.371,12.9537 3.5,19.5 0.561,0.5219 1.228,0.8552 2,1 4.677,-4.0158 8.677,-8.6824 12,-14 0.725,-0.5585 1.558,-0.8918 2.5,-1 10.667,3.658 20,9.3247 28,17 -1.553,4.7735 -3.386,9.4402 -5.5,14 -0.667,1.6667 -0.667,3.3333 0,5 0.561,0.5219 1.228,0.8552 2,1 4.989,-1.4406 9.822,-3.2739 14.5,-5.5 1.333,-0.6667 2.667,-0.6667 4,0 6.561,7.6166 11.728,16.1166 15.5,25.5 0.781,1.4437 0.614,2.777 -0.5,4 -1.481,0.9803 -2.815,2.147 -4,3.5 -4.667,0.6667 -9.333,0.6667 -14,0 3.36,-2.3661 6.36,-5.0327 9,-8 -2.751,-5.7481 -5.918,-11.2481 -9.5,-16.5 -5.65,2.3289 -11.316,4.6623 -17,7 -3.62,-2.6168 -6.953,-5.6168 -10,-9 -0.667,-1.3333 -0.667,-2.6667 0,-4 2.114,-4.5598 3.947,-9.2265 5.5,-14 -4.514,-4.1844 -9.681,-7.5177 -15.5,-10 -4.954,4.5628 -9.454,9.5628 -13.5,15 -3.904,-1.4762 -7.904,-2.6428 -12,-3.5 -2.109,-6.5442 -3.442,-13.3775 -4,-20.5 -6.667,0 -13.333,0 -20,0 -1.135,6.6153 -1.802,13.2819 -2,20 -4.578,0.6024 -9.078,1.6024 -13.5,3 -0.833,-0.3333 -1.667,-0.6667 -2.5,-1 -3.143,-4.311 -6.477,-8.4776 -10,-12.5 -6.308,1.0716 -11.808,3.9049 -16.5,8.5 1.202,5.7689 3.035,11.4356 5.5,17 -2.407,3.9148 -5.407,7.4148 -9,10.5 -5.928,-1.1965 -11.762,-3.0298 -17.5,-5.5 -1.605,0.6007 -2.938,1.6007 -4,3 -2.557,3.9464 -4.723,8.1131 -6.5,12.5 2.64,2.9673 5.64,5.6339 9,8 -4.667,0.6667 -9.333,0.6667 -14,0 -1.8798,-1.7096 -3.5465,-3.543 -5,-5.5 3.7011,-9.7368 8.701,-18.7368 15,-27 1.223,-1.1139 2.556,-1.2805 4,-0.5 4.967,1.9334 9.967,3.7667 15,5.5 0.942,-0.1082 1.775,-0.4415 2.5,-1 0.667,-1.6667 0.667,-3.3333 0,-5 -2.114,-4.5598 -3.947,-9.2265 -5.5,-14 8,-7.6753 17.333,-13.342 28,-17 0.942,0.1082 1.775,0.4415 2.5,1 3.297,5.1277 7.13,9.7944 11.5,14 1.667,-0.3333 2.667,-1.3333 3,-3 0.915,-5.6509 1.748,-11.3176 2.5,-17 1.622,-0.5989 3.122,-1.2656 4.5,-2 z"
       id="path2" />
  </g>
  <g
     id="g3"
     transform="translate(-28.5,-26.384737)">
    <path
       style="opacity:1"
       fill="#ff712b"
       d="m 177.5,76.5 c 21.601,-2.1895 39.268,4.9771 53,21.5 -3.667,0.6667 -7.333,0.6667 -11,0 -21.372,-17.9455 -42.705,-17.9455 -64,0 -3.667,0.6667 -7.333,0.6667 -11,0 8.748,-10.702 19.748,-17.8687 33,-21.5 z"
       id="path3" />
  </g>
  <g
     id="g4"
     transform="translate(-28.5,-26.384737)">
    <path
       style="opacity:1"
       fill="#010101"
       d="m 41.5,134.5 c -0.06,-0.543 -0.3933,-0.876 -1,-1 -0.9975,7.638 -1.3308,15.304 -1,23 -3.6667,0 -7.3333,0 -11,0 0,-15 0,-30 0,-45 4.0546,-0.324 8.0546,0.009 12,1 4.1667,7 8.3333,14 12.5,21 0.4997,-7.326 0.6663,-14.659 0.5,-22 4,0 8,0 12,0 0,15 0,30 0,45 -4.0546,0.324 -8.0546,-0.009 -12,-1 -4.2648,-6.865 -8.2648,-13.865 -12,-21 z"
       id="path4" />
  </g>
  <path
     d="M 59.707031,83.755859 C 57.869517,83.668984 55.9667,83.788984 54,84.115234 c -5.2544,2.086 -9.0877,5.752 -11.5,11 -0.6667,7.666996 -0.6667,15.332996 0,22.999996 0.9195,4.688 3.4195,8.188 7.5,10.5 10.8823,4.572 19.7156,2.072 26.5,-7.5 1.537,-8.27 1.87,-16.603 1,-24.999996 l -3,-6 c -4.349925,-3.97875 -9.280427,-6.09875 -14.792969,-6.359375 z m -0.982422,11.160157 c 2.607633,0.11775 4.865666,1.184718 6.775391,3.199218 0.6667,6.332996 0.6667,12.666996 0,18.999996 -3.713,3.987 -7.3797,3.987 -11,0 -0.6667,-6.333 -0.6667,-12.667 0,-18.999996 0.5133,-1.027 1.0133,-2.027 1.5,-3 0.94675,-0.1715 1.855398,-0.238468 2.724609,-0.199218 z"
     style="opacity:1;fill:#060606"
     id="path83" />
  <g
     id="g6"
     transform="translate(-28.5,-26.384737)">
    <path
       style="opacity:1"
       fill="#040404"
       d="m 110.5,111.5 c 4.333,0 8.667,0 13,0 1.209,9.169 3.209,18.169 6,27 2.537,-8.892 4.537,-17.892 6,-27 4.333,0 8.667,0 13,0 -4.058,14.677 -8.225,29.344 -12.5,44 -4.333,1.333 -8.667,1.333 -13,0 -4.482,-14.596 -8.648,-29.263 -12.5,-44 z"
       id="path6" />
  </g>
  <path
     d="m 137,85.115234 c -5.11,14.774 -9.444,29.773996 -13,44.999996 h 12 c 0.333,-2 0.667,-4 1,-6 5.011,-0.166 10.011,0.001 15,0.5 0.76,1.441 1.426,2.941 2,4.5 3.945,0.991 7.945,1.324 12,1 -3.513,-14.877 -7.847,-29.543 -13,-43.999996 -5.292,-0.995 -10.625,-1.328 -16,-1 z m 8.19922,14.408203 c 1.35686,0.0202 2.62418,4.884453 3.80078,14.591793 -2.885,0.306 -5.552,-0.027 -8,-1 1.48493,-9.08036 2.88411,-13.611369 4.19922,-13.591793 z"
     style="opacity:1;fill:#060606"
     id="path80" />
  <g
     id="g8"
     transform="translate(-28.5,-26.384737)">
    <path
       style="opacity:1"
       fill="#181818"
       d="m 287.5,111.5 c -10.181,-0.327 -20.181,0.006 -30,1 -0.996,13.49 -1.329,27.156 -1,41 10,0 20,0 30,0 0,-2.667 0,-5.333 0,-8 -6.342,0.166 -12.675,0 -19,-0.5 -0.944,-2.719 -1.277,-5.552 -1,-8.5 4.333,0 8.667,0 13,0 0,-2.667 0,-5.333 0,-8 -4.202,0.317 -8.202,-0.017 -12,-1 4.333,0 8.667,0 13,0 1.306,3.187 1.306,6.52 0,10 -3.929,0.933 -7.929,1.266 -12,1 0,1.667 0,3.333 0,5 6.59,-0.311 13.09,0.022 19.5,1 0.789,3.591 0.622,7.091 -0.5,10.5 -10.714,0.81 -21.38,0.643 -32,-0.5 -1.166,-14.322 -1.333,-28.655 -0.5,-43 10.931,-1.329 21.765,-1.329 32.5,0 z"
       id="path8" />
  </g>
  <g
     id="g9"
     transform="translate(-28.5,-26.384737)">
    <path
       style="opacity:1"
       fill="#272727"
       d="m 257.5,112.5 c 9.819,-0.994 19.819,-1.327 30,-1 0.658,1.293 0.992,2.793 1,4.5 0.195,2.352 -0.472,4.352 -2,6 -5.991,0.499 -11.991,0.666 -18,0.5 0,1.333 0,2.667 0,4 4.202,-0.317 8.202,0.017 12,1 -4.333,0 -8.667,0 -13,0 -0.968,-2.107 -1.302,-4.441 -1,-7 6.667,0 13.333,0 20,0 0,-2.667 0,-5.333 0,-8 -9.667,0 -19.333,0 -29,0 z"
       id="path9" />
  </g>
  <path
     d="m 270,84.115234 c -1.148,14.259 -1.315,28.591996 -0.5,42.999996 l 1.5,1.5 c 3.923,0.793 7.756,0.626 11.5,-0.5 0.171,-5.364 0.671,-10.698 1.5,-16 2.795,5.423 5.462,10.923 8,16.5 4,0.667 8,0.667 12,0 1.017,-1.049 1.184,-2.216 0.5,-3.5 -2.303,-4.439 -4.47,-8.939 -6.5,-13.5 2.908,-2.245 5.075,-5.078 6.5,-8.5 2.271,-9.638996 -1.229,-15.804996 -10.5,-18.499996 -7.993,-0.5 -15.993,-0.666 -24,-0.5 z m 1,2 c 7.674,-0.166 15.341,0 23,0.5 7.673,2.842 10.506,8.342 8.5,16.499996 -2.007,2.836 -4.174,5.503 -6.5,8 2.057,5.115 4.391,10.115 7,15 -3.284,1.157 -6.618,1.324 -10,0.5 -2.295,-4.759 -4.462,-9.592 -6.5,-14.5 -1.699,-0.906 -3.533,-1.239 -5.5,-1 v 16 h -10 z"
     style="opacity:1;fill:#1b1b1b"
     id="path88" />
  <g
     id="g11"
     transform="translate(-28.5,-26.384737)">
    <path
       style="opacity:1"
       fill="#f6f6f6"
       d="m 257.5,112.5 c 9.667,0 19.333,0 29,0 0,2.667 0,5.333 0,8 -6.667,0 -13.333,0 -20,0 -0.302,2.559 0.032,4.893 1,7 3.798,0.983 7.798,1.317 12,1 0,2.667 0,5.333 0,8 -4.333,0 -8.667,0 -13,0 -0.277,2.948 0.056,5.781 1,8.5 6.325,0.5 12.658,0.666 19,0.5 0,2.667 0,5.333 0,8 -10,0 -20,0 -30,0 -0.329,-13.844 0.004,-27.51 1,-41 z"
       id="path11" />
  </g>
  <path
     d="m 271,86.115234 v 40.999996 h 10 v -16 c 1.967,-0.239 3.801,0.094 5.5,1 2.038,4.908 4.205,9.741 6.5,14.5 3.382,0.824 6.716,0.657 10,-0.5 -2.609,-4.885 -4.943,-9.885 -7,-15 2.326,-2.497 4.493,-5.164 6.5,-8 2.006,-8.157996 -0.827,-13.657996 -8.5,-16.499996 -7.659,-0.5 -15.326,-0.666 -23,-0.5 z m 10,8 c 3.35,-0.165 6.683,0.002 10,0.5 2.18,2.418 2.513,5.084008 1,7.999996 -3.652,0.499 -7.318,0.665 -11,0.5 z"
     style="opacity:1;fill:#f5f5f5"
     id="path87" />
  <path
     d="m 281,94.115234 v 8.999996 c 3.682,0.165 7.348,-10e-4 11,-0.5 1.513,-2.915988 1.18,-5.581996 -1,-7.999996 -3.317,-0.498 -6.65,-0.665 -10,-0.5 z m 2,2 c 2.687,-0.164 5.354,0.003 8,0.5 1.36,1.938 1.027,3.603996 -1,4.999996 -2.31,0.497 -4.643,0.663 -7,0.5 z"
     style="opacity:1;fill:#131313"
     id="path86" />
  <g
     id="g17"
     transform="translate(-28.5,-26.384737)">
    <path
       style="opacity:1"
       fill="#1e1e1e"
       d="m 208.5,110.5 c 4.333,0 8.667,0 13,0 -0.166,4.679 0.001,9.345 0.5,14 3.167,-4.5 6.333,-9 9.5,-13.5 4.655,-0.499 9.321,-0.666 14,-0.5 0.149,1.052 -0.017,2.052 -0.5,3 -3.964,5.764 -7.797,11.598 -11.5,17.5 3.953,6.737 7.786,13.57 11.5,20.5 0.49,1.293 0.657,2.627 0.5,4 -4.346,0.166 -8.679,-0.001 -13,-0.5 -2.875,-4.917 -5.875,-9.751 -9,-14.5 -0.692,0.525 -1.192,1.192 -1.5,2 -0.499,4.321 -0.666,8.654 -0.5,13 -4.267,0.297 -8.434,-0.036 -12.5,-1 -0.5,-14.663 -0.667,-29.33 -0.5,-44 z"
       id="path17" />
  </g>
  <g
     id="g18"
     transform="translate(-28.5,-26.384737)">
    <path
       style="opacity:1"
       fill="#fbfbfb"
       d="m 210.5,112.5 c 3,0 6,0 9,0 0,5 0,10 0,15 1.322,0.17 2.489,-0.163 3.5,-1 3.167,-4.5 6.333,-9 9.5,-13.5 3.382,-0.824 6.716,-0.657 10,0.5 -4.096,5.422 -7.763,11.088 -11,17 3.56,7.563 7.56,14.897 12,22 -3.284,1.157 -6.618,1.324 -10,0.5 -2.973,-5.458 -6.306,-10.625 -10,-15.5 -0.98,1.481 -2.147,2.815 -3.5,4 -0.499,3.986 -0.666,7.986 -0.5,12 -3,0 -6,0 -9,0 0,-13.667 0,-27.333 0,-41 z"
       id="path18" />
  </g>
  <g
     id="g21"
     transform="translate(-28.5,-26.384737)">
    <path
       style="opacity:1"
       fill="#0d0d0d"
       d="m 92.5,168.5 c 2,0 4,0 6,0 -0.2007,3.85 -2.0341,4.85 -5.5,3 -0.4828,-0.948 -0.6495,-1.948 -0.5,-3 z"
       id="path21" />
  </g>
  <g
     id="g22"
     transform="translate(-28.5,-26.384737)">
    <path
       style="opacity:1"
       fill="#202020"
       d="m 132.5,169.5 c 1.333,0 2.667,0 4,0 0.278,1.846 -0.389,3.18 -2,4 -1.611,-0.82 -2.278,-2.154 -2,-4 z"
       id="path22" />
  </g>
  <g
     id="g23"
     transform="translate(-28.5,-26.384737)">
    <path
       style="opacity:1"
       fill="#181818"
       d="m 155.5,168.5 c 3.81,1.254 3.81,2.254 0,3 0,-1 0,-2 0,-3 z"
       id="path23" />
  </g>
  <g
     id="g24"
     transform="translate(-28.5,-26.384737)">
    <path
       style="opacity:1"
       fill="#191919"
       d="m 113.5,170.5 c 1.373,-0.157 2.707,0.01 4,0.5 0.974,2.702 -0.026,4.035 -3,4 -0.88,-1.356 -1.214,-2.856 -1,-4.5 z"
       id="path24" />
  </g>
  <g
     id="g25"
     transform="translate(-28.5,-26.384737)">
    <path
       style="opacity:1"
       fill="#171717"
       d="m 160.5,172.5 c 3.048,-0.006 3.548,0.994 1.5,3 -1.039,-0.744 -1.539,-1.744 -1.5,-3 z"
       id="path25" />
  </g>
  <g
     id="g26"
     transform="translate(-28.5,-26.384737)">
    <path
       style="opacity:1"
       fill="#010101"
       d="m 139.5,175.5 c 3.361,0.703 3.694,2.037 1,4 -2.142,-0.937 -2.476,-2.27 -1,-4 z"
       id="path26" />
  </g>
  <g
     id="g27"
     transform="translate(-28.5,-26.384737)">
    <path
       style="opacity:1"
       fill="#232323"
       d="m 166.5,175.5 c 3.457,0.167 3.79,1.167 1,3 -0.886,-0.825 -1.219,-1.825 -1,-3 z"
       id="path27" />
  </g>
  <g
     id="g28"
     transform="translate(-28.5,-26.384737)">
    <path
       style="opacity:1"
       fill="#3c3c3c"
       d="m 210.5,174.5 c 1.837,0.139 2.17,0.806 1,2 -0.798,-0.457 -1.131,-1.124 -1,-2 z"
       id="path28" />
  </g>
  <g
     id="g29"
     transform="translate(-28.5,-26.384737)">
    <path
       style="opacity:1"
       fill="#3b3b3b"
       d="m 277.5,174.5 c 1.837,0.139 2.17,0.806 1,2 -0.798,-0.457 -1.131,-1.124 -1,-2 z"
       id="path29" />
  </g>
  <g
     id="g30"
     transform="translate(-28.5,-26.384737)">
    <path
       style="opacity:1"
       fill="#2f2f2f"
       d="m 172.5,177.5 c 1,0 2,0 3,0 0,1 0,2 0,3 -1,0 -2,0 -3,0 0,-1 0,-2 0,-3 z"
       id="path30" />
  </g>
  <g
     id="g31"
     transform="translate(-28.5,-26.384737)">
    <path
       style="opacity:1"
       fill="#252525"
       d="m 204.5,176.5 c 1.837,0.139 2.17,0.806 1,2 -0.798,-0.457 -1.131,-1.124 -1,-2 z"
       id="path31" />
  </g>
  <g
     id="g32"
     transform="translate(-28.5,-26.384737)">
    <path
       style="opacity:1"
       fill="#0d0d0d"
       d="m 100.5,177.5 c 3.466,0.609 4.466,2.442 3,5.5 -5.2106,0.546 -6.2106,-1.287 -3,-5.5 z"
       id="path32" />
  </g>
  <g
     id="g33"
     transform="translate(-28.5,-26.384737)">
    <path
       style="opacity:1"
       fill="#1b1b1b"
       d="m 120.5,178.5 c 5.505,2.671 5.171,4.338 -1,5 -0.134,-1.792 0.199,-3.458 1,-5 z"
       id="path33" />
  </g>
  <g
     id="g34"
     transform="translate(-28.5,-26.384737)">
    <path
       style="opacity:1"
       fill="#333333"
       d="m 179.5,178.5 c 1.548,0.321 2.215,1.321 2,3 -2.748,0.098 -3.414,-0.902 -2,-3 z"
       id="path34" />
  </g>
  <g
     id="g35"
     transform="translate(-28.5,-26.384737)">
    <path
       style="opacity:1"
       fill="#080808"
       d="m 198.5,178.5 c 1.837,0.139 2.17,0.806 1,2 -0.798,-0.457 -1.131,-1.124 -1,-2 z"
       id="path35" />
  </g>
  <g
     id="g36"
     transform="translate(-28.5,-26.384737)">
    <path
       style="opacity:1"
       fill="#1c1c1c"
       d="m 185.5,179.5 c 1.965,0.448 2.298,1.448 1,3 -0.886,-0.825 -1.219,-1.825 -1,-3 z"
       id="path36" />
  </g>
  <g
     id="g37"
     transform="translate(-28.5,-26.384737)">
    <path
       style="opacity:1"
       fill="#363636"
       d="m 191.5,179.5 c 1.175,-0.219 2.175,0.114 3,1 -1.552,1.298 -2.552,0.965 -3,-1 z"
       id="path37" />
  </g>
  <g
     id="g38"
     transform="translate(-28.5,-26.384737)">
    <path
       style="opacity:1"
       fill="#6a6a6a"
       d="m 232.5,179.5 c 1.837,0.139 2.17,0.806 1,2 -0.798,-0.457 -1.131,-1.124 -1,-2 z"
       id="path38" />
  </g>
  <g
     id="g39"
     transform="translate(-28.5,-26.384737)">
    <path
       style="opacity:1"
       fill="#202020"
       d="m 144.5,181.5 c 1.333,0 2.667,0 4,0 0.278,1.846 -0.389,3.18 -2,4 -1.611,-0.82 -2.278,-2.154 -2,-4 z"
       id="path39" />
  </g>
  <g
     id="g40"
     transform="translate(-28.5,-26.384737)">
    <path
       style="opacity:1"
       fill="#0a0a0a"
       d="m 225.5,184.5 c 1.837,0.139 2.17,0.806 1,2 -0.798,-0.457 -1.131,-1.124 -1,-2 z"
       id="path40" />
  </g>
  <g
     id="g41"
     transform="translate(-28.5,-26.384737)">
    <path
       style="opacity:1"
       fill="#040404"
       d="m 250.5,184.5 c 1.837,0.139 2.17,0.806 1,2 -0.798,-0.457 -1.131,-1.124 -1,-2 z"
       id="path41" />
  </g>
  <g
     id="g42"
     transform="translate(-28.5,-26.384737)">
    <path
       style="opacity:1"
       fill="#171717"
       d="m 270.5,185.5 c 1.837,0.139 2.17,0.806 1,2 -0.798,-0.457 -1.131,-1.124 -1,-2 z"
       id="path42" />
  </g>
  <g
     id="g43"
     transform="translate(-28.5,-26.384737)">
    <path
       style="opacity:1"
       fill="#232323"
       d="m 152.5,185.5 c 1,0 2,0 3,0 0,1.333 0,2.667 0,4 -3.454,0.233 -4.454,-1.1 -3,-4 z"
       id="path43" />
  </g>
  <g
     id="g44"
     transform="translate(-28.5,-26.384737)">
    <path
       style="opacity:1"
       fill="#171717"
       d="m 127.5,186.5 c 3.661,-0.15 4.661,1.35 3,4.5 -1.293,0.49 -2.627,0.657 -4,0.5 -0.134,-1.792 0.199,-3.458 1,-5 z"
       id="path44" />
  </g>
  <g
     id="g45"
     transform="translate(-28.5,-26.384737)">
    <path
       style="opacity:1"
       fill="#131313"
       d="m 106.5,188.5 c 4.659,-0.485 5.992,1.348 4,5.5 -4.772,0.81 -6.105,-1.023 -4,-5.5 z"
       id="path45" />
  </g>
  <g
     id="g46"
     transform="translate(-28.5,-26.384737)">
    <path
       style="opacity:1"
       fill="#3a3a3a"
       d="m 217.5,188.5 c 1,0 2,0 3,0 0,1 0,2 0,3 -1,0 -2,0 -3,0 0,-1 0,-2 0,-3 z"
       id="path46" />
  </g>
  <g
     id="g47"
     transform="translate(-28.5,-26.384737)">
    <path
       style="opacity:1"
       fill="#181818"
       d="m 160.5,189.5 c 2.412,0.194 3.412,1.527 3,4 -1.333,0 -2.667,0 -4,0 -0.067,-1.459 0.266,-2.792 1,-4 z"
       id="path47" />
  </g>
  <g
     id="g48"
     transform="translate(-28.5,-26.384737)">
    <path
       style="opacity:1"
       fill="#2c2c2c"
       d="m 243.5,191.5 c 1.965,0.448 2.298,1.448 1,3 -2.019,-0.633 -2.353,-1.633 -1,-3 z"
       id="path48" />
  </g>
  <g
     id="g49"
     transform="translate(-28.5,-26.384737)">
    <path
       style="opacity:1"
       fill="#2d2d2d"
       d="m 210.5,191.5 c 1.548,0.321 2.215,1.321 2,3 -2.748,0.098 -3.414,-0.902 -2,-3 z"
       id="path49" />
  </g>
  <g
     id="g50"
     transform="translate(-28.5,-26.384737)">
    <path
       style="opacity:1"
       fill="#181818"
       d="m 168.5,192.5 c 3.361,0.703 3.694,2.037 1,4 -2.142,-0.937 -2.476,-2.27 -1,-4 z"
       id="path50" />
  </g>
  <g
     id="g51"
     transform="translate(-28.5,-26.384737)">
    <path
       style="opacity:1"
       fill="#1b1b1b"
       d="m 135.5,193.5 c 5.505,2.671 5.171,4.338 -1,5 -0.134,-1.792 0.199,-3.458 1,-5 z"
       id="path51" />
  </g>
  <g
     id="g52"
     transform="translate(-28.5,-26.384737)">
    <path
       style="opacity:1"
       fill="#050505"
       d="m 201.5,194.5 c 1.175,-0.219 2.175,0.114 3,1 -1.552,1.298 -2.552,0.965 -3,-1 z"
       id="path52" />
  </g>
  <g
     id="g53"
     transform="translate(-28.5,-26.384737)">
    <path
       style="opacity:1"
       fill="#202020"
       d="m 176.5,194.5 c 3.361,0.703 3.694,2.037 1,4 -2.142,-0.937 -2.476,-2.27 -1,-4 z"
       id="path53" />
  </g>
  <g
     id="g54"
     transform="translate(-28.5,-26.384737)">
    <path
       style="opacity:1"
       fill="#0e0e0e"
       d="m 184.5,195.5 c 1,0 2,0 3,0 0,1 0,2 0,3 -1,0 -2,0 -3,0 0,-1 0,-2 0,-3 z"
       id="path54" />
  </g>
  <g
     id="g55"
     transform="translate(-28.5,-26.384737)">
    <path
       style="opacity:1"
       fill="#161616"
       d="m 193.5,195.5 c 1,0 2,0 3,0 0,1 0,2 0,3 -1,0 -2,0 -3,0 0,-1 0,-2 0,-3 z"
       id="path55" />
  </g>
  <g
     id="g56"
     transform="translate(-28.5,-26.384737)">
    <path
       style="opacity:1"
       fill="#242424"
       d="m 263.5,194.5 c 2.125,0.868 2.291,1.868 0.5,3 -1.683,-0.676 -1.85,-1.676 -0.5,-3 z"
       id="path56" />
  </g>
  <g
     id="g57"
     transform="translate(-28.5,-26.384737)">
    <path
       style="opacity:1"
       fill="#1d1d1d"
       d="m 115.5,197.5 c 3.973,0.575 4.973,2.742 3,6.5 -5.118,-0.176 -6.118,-2.342 -3,-6.5 z"
       id="path57" />
  </g>
  <g
     id="g58"
     transform="translate(-28.5,-26.384737)">
    <path
       style="opacity:1"
       fill="#212121"
       d="m 234.5,197.5 c 3.81,1.254 3.81,2.254 0,3 0,-1 0,-2 0,-3 z"
       id="path58" />
  </g>
  <g
     id="g59"
     transform="translate(-28.5,-26.384737)">
    <path
       style="opacity:1"
       fill="#1e1e1e"
       d="m 144.5,199.5 c 2.584,0.548 3.584,2.215 3,5 -4.997,0.279 -5.997,-1.387 -3,-5 z"
       id="path59" />
  </g>
  <g
     id="g60"
     transform="translate(-28.5,-26.384737)">
    <path
       style="opacity:1"
       fill="#181818"
       d="m 225.5,203.5 c 3.457,0.167 3.79,1.167 1,3 -0.886,-0.825 -1.219,-1.825 -1,-3 z"
       id="path60" />
  </g>
  <g
     id="g61"
     transform="translate(-28.5,-26.384737)">
    <path
       style="opacity:1"
       fill="#171717"
       d="m 253.5,203.5 c 1,0 2,0 3,0 0,1 0,2 0,3 -1,0 -2,0 -3,0 0,-1 0,-2 0,-3 z"
       id="path61" />
  </g>
  <g
     id="g62"
     transform="translate(-28.5,-26.384737)">
    <path
       style="opacity:1"
       fill="#191919"
       d="m 153.5,204.5 c 3.661,-0.15 4.661,1.35 3,4.5 -3.793,0.487 -4.793,-1.013 -3,-4.5 z"
       id="path62" />
  </g>
  <g
     id="g63"
     transform="translate(-28.5,-26.384737)">
    <path
       style="opacity:1"
       fill="#141414"
       d="m 124.5,206.5 c 5.087,-0.216 6.087,1.618 3,5.5 -3.963,0.118 -4.963,-1.716 -3,-5.5 z"
       id="path63" />
  </g>
  <g
     id="g64"
     transform="translate(-28.5,-26.384737)">
    <path
       style="opacity:1"
       fill="#070707"
       d="m 215.5,207.5 c 1,0 2,0 3,0 0,1 0,2 0,3 -1,0 -2,0 -3,0 0,-1 0,-2 0,-3 z"
       id="path64" />
  </g>
  <g
     id="g65"
     transform="translate(-28.5,-26.384737)">
    <path
       style="opacity:1"
       fill="#181818"
       d="m 163.5,208.5 c 4.84,0.688 5.173,2.355 1,5 -2.204,-1.282 -2.538,-2.949 -1,-5 z"
       id="path65" />
  </g>
  <g
     id="g66"
     transform="translate(-28.5,-26.384737)">
    <path
       style="opacity:1"
       fill="#171717"
       d="m 204.5,210.5 c 1.333,0 2.667,0 4,0 0,1 0,2 0,3 -1.333,0 -2.667,0 -4,0 0,-1 0,-2 0,-3 z"
       id="path66" />
  </g>
  <g
     id="g67"
     transform="translate(-28.5,-26.384737)">
    <path
       style="opacity:1"
       fill="#1f1f1f"
       d="m 173.5,210.5 c 3.661,-0.15 4.661,1.35 3,4.5 -3.793,0.487 -4.793,-1.013 -3,-4.5 z"
       id="path67" />
  </g>
  <g
     id="g68"
     transform="translate(-28.5,-26.384737)">
    <path
       style="opacity:1"
       fill="#0e0e0e"
       d="m 243.5,211.5 c 1,0 2,0 3,0 0,1 0,2 0,3 -1,0 -2,0 -3,0 0,-1 0,-2 0,-3 z"
       id="path68" />
  </g>
  <g
     id="g69"
     transform="translate(-28.5,-26.384737)">
    <path
       style="opacity:1"
       fill="#1e1e1e"
       d="m 184.5,211.5 c 2.584,0.548 3.584,2.215 3,5 -3.784,-0.025 -4.784,-1.692 -3,-5 z"
       id="path69" />
  </g>
  <g
     id="g70"
     transform="translate(-28.5,-26.384737)">
    <path
       style="opacity:1"
       fill="#171717"
       d="m 195.5,211.5 c 1.495,-0.085 2.495,0.581 3,2 -0.82,1.611 -2.154,2.278 -4,2 -0.067,-1.459 0.266,-2.792 1,-4 z"
       id="path70" />
  </g>
  <g
     id="g71"
     transform="translate(-28.5,-26.384737)">
    <path
       style="opacity:1"
       fill="#0a0a0a"
       d="m 135.5,213.5 c 3.85,0.201 4.85,2.034 3,5.5 -4.778,0.073 -5.778,-1.76 -3,-5.5 z"
       id="path71" />
  </g>
  <g
     id="g72"
     transform="translate(-28.5,-26.384737)">
    <path
       style="opacity:1"
       fill="#1e1e1e"
       d="m 232.5,217.5 c 1.846,-0.278 3.18,0.389 4,2 -0.82,1.611 -2.154,2.278 -4,2 0,-1.333 0,-2.667 0,-4 z"
       id="path72" />
  </g>
  <g
     id="g73"
     transform="translate(-28.5,-26.384737)">
    <path
       style="opacity:1"
       fill="#171717"
       d="m 146.5,219.5 c 4.541,0.315 5.541,2.149 3,5.5 -3.963,0.118 -4.963,-1.716 -3,-5.5 z"
       id="path73" />
  </g>
  <g
     id="g74"
     transform="translate(-28.5,-26.384737)">
    <path
       style="opacity:1"
       fill="#131313"
       d="m 221.5,222.5 c 2.412,0.194 3.412,1.527 3,4 -1.333,0 -2.667,0 -4,0 -0.067,-1.459 0.266,-2.792 1,-4 z"
       id="path74" />
  </g>
  <g
     id="g75"
     transform="translate(-28.5,-26.384737)">
    <path
       style="opacity:1"
       fill="#161616"
       d="m 158.5,223.5 c 4.541,0.315 5.541,2.149 3,5.5 -3.963,0.118 -4.963,-1.716 -3,-5.5 z"
       id="path75" />
  </g>
  <g
     id="g76"
     transform="translate(-28.5,-26.384737)">
    <path
       style="opacity:1"
       fill="#191919"
       d="m 209.5,225.5 c 2.889,0.499 3.556,1.999 2,4.5 -0.948,0.483 -1.948,0.649 -3,0.5 -0.134,-1.792 0.199,-3.458 1,-5 z"
       id="path76" />
  </g>
  <g
     id="g77"
     transform="translate(-28.5,-26.384737)">
    <path
       style="opacity:1"
       fill="#1e1e1e"
       d="m 170.5,226.5 c 5.675,0.36 6.342,2.36 2,6 -2.89,-1.337 -3.557,-3.337 -2,-6 z"
       id="path77" />
  </g>
  <g
     id="g78"
     transform="translate(-28.5,-26.384737)">
    <path
       style="opacity:1"
       fill="#1a1a1a"
       d="m 183.5,227.5 c 3.41,-0.116 4.744,1.55 4,5 -1.667,0 -3.333,0 -5,0 -0.134,-1.792 0.199,-3.458 1,-5 z"
       id="path78" />
  </g>
  <g
     id="g79"
     transform="translate(-28.5,-26.384737)">
    <path
       style="opacity:1"
       fill="#141414"
       d="m 196.5,227.5 c 3.661,-0.15 4.661,1.35 3,4.5 -3.793,0.487 -4.793,-1.013 -3,-4.5 z"
       id="path79" />
  </g>
</svg>
